<?xml version="1.0" encoding="UTF-8" standalone="no"?>
<svg
   width="200"
   height="200"
   version="1.1"
   id="svg24"
   xmlns="http://www.w3.org/2000/svg"
   xmlns:svg="http://www.w3.org/2000/svg">
  <defs
     id="defs28" />
  <g
     fill="none"
     stroke-miterlimit="10"
     id="g8">
    <path
       d="M37.133 105.617h68.54l28.007-10.634a3.822 3.822 0 002.216-4.93L113.933 32.2a3.821 3.821 0 00-4.93-2.216l-84.34 32.021a3.821 3.821 0 00-2.215 4.93z"
       fill="#f3ac47"
       id="path2" />
    <path
       d="M105.674 105.617l28.009-10.634a3.8 3.8 0 002.073-1.907L76.443 71.304l-18.448 34.313z"
       fill="#f19a3d"
       id="path4" />
    <path
       d="M22.386 64.451l59.517 21.233 29.918-55.65a3.799 3.799 0 00-2.817-.05l-84.34 32.022a3.796 3.796 0 00-2.278 2.445z"
       fill="#ffd15c"
       id="path6" />
  </g>
  <g
     transform="matrix(7.90632 0 0 7.90632 4.913 5.92)"
     id="g22">
    <path
       d="M23.77 11.079c-.069-.045-1.498-.947-2.849-.732-.327-1.369-1.583-2.222-1.645-2.263a.499.499 0 00-.638.069c-.1.104-.967 1.074-.722 3.282a.52.52 0 01-.126.411.447.447 0 01-.342.154H.5a.5.5 0 00-.5.5C0 20.172 5.595 21 8 21c6.193 0 10.498-3.762 12.377-7.077 2.476-.395 3.509-2.094 3.554-2.168a.501.501 0 00-.161-.676z"
       fill="#303c42"
       id="path10" />
    <path
       d="M20.002 12.965a.5.5 0 00-.382.261C17.942 16.351 13.891 20 8 20c-2.546 0-6.772-.924-6.991-7h16.439c.422 0 .809-.173 1.089-.486.287-.321.424-.754.375-1.189-.113-1.02.053-1.687.214-2.069.375.361.874.985.874 1.744 0 .173.09.334.237.426a.503.503 0 00.486.021c.595-.3 1.44-.048 2.015.212-.432.455-1.301 1.138-2.736 1.306z"
       fill="#42a5f5"
       id="path12" />
    <path
       d="M20.002 12.465a.5.5 0 00-.382.261C17.942 15.851 13.891 19.5 8 19.5c-2.472 0-6.518-.886-6.951-6.5h-.04c.218 6.076 4.445 7 6.991 7 5.892 0 9.942-3.649 11.62-6.774a.5.5 0 01.382-.261c1.436-.168 2.305-.851 2.736-1.306a4.894 4.894 0 00-.384-.15c-.492.399-1.254.827-2.352.956z"
       opacity=".1"
       id="path14" />
    <circle
       cx="5.041"
       cy="16"
       r="1"
       fill="#303c42"
       id="circle16" />
    <circle
       cx="5.469"
       cy="15.729"
       r=".323"
       fill="#fff"
       id="circle18" />
    <path
       d="M23.77 11.079c-.069-.045-1.498-.947-2.849-.732-.327-1.369-1.583-2.222-1.645-2.263a.499.499 0 00-.638.069c-.1.104-.967 1.074-.722 3.282a.52.52 0 01-.126.411.447.447 0 01-.342.154H17V9.5a.5.5 0 00-.5-.5H14V3.5a.5.5 0 00-.5-.5h-3a.5.5 0 00-.5.5V6H4.5a.5.5 0 00-.5.5V9H1.5a.5.5 0 00-.5.5V12H.5a.5.5 0 00-.5.5C0 20.172 5.595 21 8 21c6.193 0 10.498-3.762 12.377-7.077 2.476-.395 3.509-2.094 3.554-2.168a.501.501 0 00-.161-.676z"
       fill="url(#a)"
       id="path20" />
  </g>
</svg>
